<svg xmlns="http://www.w3.org/2000/svg" version="1.1" xmlns:xlink="http://www.w3.org/1999/xlink" xmlns:svgjs="http://svgjs.dev/svgjs" viewBox="0 0 800 800"><defs><linearGradient x1="50%" y1="0%" x2="50%" y2="100%" id="ffflurry-grad" gradientTransform="rotate(270)"><stop stop-color="hsl(0, 0%, 86%)" stop-opacity="1" offset="0%"></stop><stop stop-color="hsl(0, 0%, 0%)" stop-opacity="1" offset="45%"></stop><stop stop-color="hsl(290, 46%, 39%)" stop-opacity="1" offset="100%"></stop></linearGradient></defs><rect width="100%" height="100%" fill="hsl(0, 0%, 86%)"></rect><g fill="url(#ffflurry-grad)"><rect width="67" height="4" x="-12.5" y="507" rx="2" transform="rotate(129, 21, 509)" opacity="0.46"></rect><rect width="272" height="4" x="549" y="517" rx="2" transform="rotate(129, 685, 519)" opacity="0.34"></rect><rect width="71" height="4" x="725.5" y="757" rx="2" transform="rotate(129, 761, 759)" opacity="0.08"></rect><rect width="92" height="4" x="220" y="481" rx="2" transform="rotate(129, 266, 483)" opacity="0.17"></rect><rect width="56" height="4" x="360" y="145" rx="2" transform="rotate(129, 388, 147)" opacity="0.40"></rect><rect width="141" height="4" x="372.5" y="86" rx="2" transform="rotate(129, 443, 88)" opacity="0.88"></rect><rect width="63" height="4" x="247.5" y="255" rx="2" transform="rotate(129, 279, 257)" opacity="0.78"></rect><rect width="189" height="4" x="299.5" y="397" rx="2" transform="rotate(129, 394, 399)" opacity="0.86"></rect><rect width="124" height="4" x="370" y="174" rx="2" transform="rotate(129, 432, 176)" opacity="0.86"></rect><rect width="87" height="4" x="-21.5" y="457" rx="2" transform="rotate(129, 22, 459)" opacity="0.97"></rect><rect width="227" height="4" x="658.5" y="150" rx="2" transform="rotate(129, 772, 152)" opacity="0.79"></rect><rect width="105" height="4" x="64.5" y="102" rx="2" transform="rotate(129, 117, 104)" opacity="0.32"></rect><rect width="77" height="4" x="86.5" y="478" rx="2" transform="rotate(129, 125, 480)" opacity="0.65"></rect><rect width="112" height="4" x="713" y="395" rx="2" transform="rotate(129, 769, 397)" opacity="0.70"></rect><rect width="335" height="4" x="421.5" y="196" rx="2" transform="rotate(129, 589, 198)" opacity="0.17"></rect><rect width="115" height="4" x="6.5" y="365" rx="2" transform="rotate(129, 64, 367)" opacity="0.99"></rect><rect width="298" height="4" x="-115" y="573" rx="2" transform="rotate(129, 34, 575)" opacity="0.46"></rect><rect width="233" height="4" x="311.5" y="31" rx="2" transform="rotate(129, 428, 33)" opacity="0.82"></rect><rect width="96" height="4" x="122" y="236" rx="2" transform="rotate(129, 170, 238)" opacity="0.91"></rect><rect width="179" height="4" x="689.5" y="676" rx="2" transform="rotate(129, 779, 678)" opacity="0.78"></rect><rect width="115" height="4" x="254.5" y="558" rx="2" transform="rotate(129, 312, 560)" opacity="0.95"></rect><rect width="46" height="4" x="3" y="261" rx="2" transform="rotate(129, 26, 263)" opacity="0.52"></rect><rect width="102" height="4" x="511" y="353" rx="2" transform="rotate(129, 562, 355)" opacity="0.17"></rect><rect width="66" height="4" x="402" y="255" rx="2" transform="rotate(129, 435, 257)" opacity="0.46"></rect><rect width="247" height="4" x="-72.5" y="660" rx="2" transform="rotate(129, 51, 662)" opacity="0.34"></rect><rect width="163" height="4" x="676.5" y="290" rx="2" transform="rotate(129, 758, 292)" opacity="0.74"></rect><rect width="64" height="4" x="262" y="129" rx="2" transform="rotate(129, 294, 131)" opacity="0.74"></rect><rect width="147" height="4" x="355.5" y="475" rx="2" transform="rotate(129, 429, 477)" opacity="0.53"></rect><rect width="230" height="4" x="-78" y="137" rx="2" transform="rotate(129, 37, 139)" opacity="0.39"></rect><rect width="208" height="4" x="572" y="45" rx="2" transform="rotate(129, 676, 47)" opacity="0.10"></rect><rect width="69" height="4" x="413.5" y="131" rx="2" transform="rotate(129, 448, 133)" opacity="0.20"></rect><rect width="142" height="4" x="646" y="27" rx="2" transform="rotate(129, 717, 29)" opacity="0.63"></rect><rect width="53" height="4" x="710.5" y="609" rx="2" transform="rotate(129, 737, 611)" opacity="0.98"></rect><rect width="398" height="4" x="-77" y="584" rx="2" transform="rotate(129, 122, 586)" opacity="0.34"></rect><rect width="98" height="4" x="145" y="464" rx="2" transform="rotate(129, 194, 466)" opacity="0.79"></rect><rect width="98" height="4" x="464" y="485" rx="2" transform="rotate(129, 513, 487)" opacity="0.16"></rect><rect width="212" height="4" x="10" y="353" rx="2" transform="rotate(129, 116, 355)" opacity="0.23"></rect><rect width="322" height="4" x="371" y="569" rx="2" transform="rotate(129, 532, 571)" opacity="0.26"></rect><rect width="178" height="4" x="442" y="413" rx="2" transform="rotate(129, 531, 415)" opacity="0.90"></rect><rect width="266" height="4" x="333" y="543" rx="2" transform="rotate(129, 466, 545)" opacity="0.15"></rect><rect width="99" height="4" x="54.5" y="181" rx="2" transform="rotate(129, 104, 183)" opacity="0.48"></rect><rect width="88" height="4" x="712" y="446" rx="2" transform="rotate(129, 756, 448)" opacity="0.36"></rect><rect width="123" height="4" x="678.5" y="91" rx="2" transform="rotate(129, 740, 93)" opacity="0.32"></rect><rect width="204" height="4" x="608" y="166" rx="2" transform="rotate(129, 710, 168)" opacity="0.97"></rect><rect width="30" height="4" x="598" y="105" rx="2" transform="rotate(129, 613, 107)" opacity="0.94"></rect><rect width="116" height="4" x="441" y="641" rx="2" transform="rotate(129, 499, 643)" opacity="0.47"></rect><rect width="96" height="4" x="641" y="624" rx="2" transform="rotate(129, 689, 626)" opacity="0.79"></rect><rect width="71" height="4" x="570.5" y="549" rx="2" transform="rotate(129, 606, 551)" opacity="0.49"></rect><rect width="318" height="4" x="203" y="751" rx="2" transform="rotate(129, 362, 753)" opacity="0.75"></rect><rect width="114" height="4" x="365" y="595" rx="2" transform="rotate(129, 422, 597)" opacity="0.35"></rect><rect width="111" height="4" x="549.5" y="420" rx="2" transform="rotate(129, 605, 422)" opacity="0.12"></rect><rect width="132" height="4" x="693" y="225" rx="2" transform="rotate(129, 759, 227)" opacity="0.52"></rect><rect width="341" height="4" x="54.5" y="307" rx="2" transform="rotate(129, 225, 309)" opacity="0.32"></rect><rect width="210" height="4" x="569" y="228" rx="2" transform="rotate(129, 674, 230)" opacity="0.81"></rect><rect width="85" height="4" x="299.5" y="428" rx="2" transform="rotate(129, 342, 430)" opacity="0.74"></rect><rect width="74" height="4" x="238" y="37" rx="2" transform="rotate(129, 275, 39)" opacity="0.53"></rect><rect width="185" height="4" x="177.5" y="614" rx="2" transform="rotate(129, 270, 616)" opacity="0.87"></rect><rect width="79" height="4" x="321.5" y="18" rx="2" transform="rotate(129, 361, 20)" opacity="0.33"></rect><rect width="119" height="4" x="315.5" y="294" rx="2" transform="rotate(129, 375, 296)" opacity="0.55"></rect><rect width="280" height="4" x="60" y="556" rx="2" transform="rotate(129, 200, 558)" opacity="0.53"></rect><rect width="235" height="4" x="536.5" y="144" rx="2" transform="rotate(129, 654, 146)" opacity="0.43"></rect><rect width="388" height="4" x="146" y="213" rx="2" transform="rotate(129, 340, 215)" opacity="0.79"></rect><rect width="193" height="4" x="465.5" y="285" rx="2" transform="rotate(129, 562, 287)" opacity="0.19"></rect><rect width="46" height="4" x="-4" y="388" rx="2" transform="rotate(129, 19, 390)" opacity="0.75"></rect><rect width="103" height="4" x="511.5" y="760" rx="2" transform="rotate(129, 563, 762)" opacity="0.87"></rect><rect width="247" height="4" x="-92.5" y="49" rx="2" transform="rotate(129, 31, 51)" opacity="0.35"></rect><rect width="175" height="4" x="575.5" y="669" rx="2" transform="rotate(129, 663, 671)" opacity="0.61"></rect><rect width="302" height="4" x="294" y="367" rx="2" transform="rotate(129, 445, 369)" opacity="0.55"></rect><rect width="255" height="4" x="-37.5" y="743" rx="2" transform="rotate(129, 90, 745)" opacity="0.13"></rect><rect width="58" height="4" x="614" y="597" rx="2" transform="rotate(129, 643, 599)" opacity="0.49"></rect><rect width="39" height="4" x="327.5" y="128" rx="2" transform="rotate(129, 347, 130)" opacity="0.81"></rect><rect width="137" height="4" x="604.5" y="774" rx="2" transform="rotate(129, 673, 776)" opacity="0.45"></rect><rect width="257" height="4" x="225.5" y="638" rx="2" transform="rotate(129, 354, 640)" opacity="0.51"></rect><rect width="342" height="4" x="32" y="57" rx="2" transform="rotate(129, 203, 59)" opacity="0.13"></rect><rect width="254" height="4" x="202" y="499" rx="2" transform="rotate(129, 329, 501)" opacity="0.22"></rect><rect width="138" height="4" x="397" y="706" rx="2" transform="rotate(129, 466, 708)" opacity="0.95"></rect><rect width="188" height="4" x="535" y="344" rx="2" transform="rotate(129, 629, 346)" opacity="0.78"></rect><rect width="141" height="4" x="351.5" y="765" rx="2" transform="rotate(129, 422, 767)" opacity="0.83"></rect><rect width="144" height="4" x="660" y="348" rx="2" transform="rotate(129, 732, 350)" opacity="0.95"></rect><rect width="156" height="4" x="695" y="32" rx="2" transform="rotate(129, 773, 34)" opacity="0.92"></rect><rect width="38" height="4" x="550" y="657" rx="2" transform="rotate(129, 569, 659)" opacity="0.72"></rect><rect width="76" height="4" x="465" y="340" rx="2" transform="rotate(129, 503, 342)" opacity="0.47"></rect><rect width="42" height="4" x="165" y="172" rx="2" transform="rotate(129, 186, 174)" opacity="0.73"></rect><rect width="40" height="4" x="337" y="354" rx="2" transform="rotate(129, 357, 356)" opacity="0.50"></rect><rect width="131" height="4" x="24.5" y="27" rx="2" transform="rotate(129, 90, 29)" opacity="0.91"></rect><rect width="181" height="4" x="498.5" y="23" rx="2" transform="rotate(129, 589, 25)" opacity="0.81"></rect><rect width="49" height="4" x="519.5" y="12" rx="2" transform="rotate(129, 544, 14)" opacity="0.26"></rect><rect width="146" height="4" x="582" y="287" rx="2" transform="rotate(129, 655, 289)" opacity="0.14"></rect><rect width="202" height="4" x="76" y="390" rx="2" transform="rotate(129, 177, 392)" opacity="0.15"></rect><rect width="226" height="4" x="449" y="89" rx="2" transform="rotate(129, 562, 91)" opacity="0.65"></rect><rect width="130" height="4" x="161" y="763" rx="2" transform="rotate(129, 226, 765)" opacity="0.89"></rect><rect width="277" height="4" x="256.5" y="539" rx="2" transform="rotate(129, 395, 541)" opacity="0.94"></rect><rect width="261" height="4" x="-58.5" y="508" rx="2" transform="rotate(129, 72, 510)" opacity="0.59"></rect><rect width="233" height="4" x="-1.5" y="293" rx="2" transform="rotate(129, 115, 295)" opacity="0.08"></rect><rect width="204" height="4" x="51" y="31" rx="2" transform="rotate(129, 153, 33)" opacity="0.34"></rect><rect width="268" height="4" x="-94" y="315" rx="2" transform="rotate(129, 40, 317)" opacity="0.62"></rect><rect width="280" height="4" x="-85" y="222" rx="2" transform="rotate(129, 55, 224)" opacity="0.67"></rect><rect width="125" height="4" x="477.5" y="50" rx="2" transform="rotate(129, 540, 52)" opacity="0.10"></rect><rect width="37" height="4" x="749.5" y="569" rx="2" transform="rotate(129, 768, 571)" opacity="0.71"></rect><rect width="57" height="4" x="561.5" y="486" rx="2" transform="rotate(129, 590, 488)" opacity="0.20"></rect><rect width="75" height="4" x="424.5" y="430" rx="2" transform="rotate(129, 462, 432)" opacity="0.80"></rect><rect width="33" height="4" x="404.5" y="661" rx="2" transform="rotate(129, 421, 663)" opacity="0.29"></rect><rect width="41" height="4" x="713.5" y="670" rx="2" transform="rotate(129, 734, 672)" opacity="0.79"></rect><rect width="90" height="4" x="217" y="398" rx="2" transform="rotate(129, 262, 400)" opacity="0.71"></rect><rect width="202" height="4" x="531" y="40" rx="2" transform="rotate(129, 632, 42)" opacity="0.92"></rect><rect width="109" height="4" x="455.5" y="17" rx="2" transform="rotate(129, 510, 19)" opacity="0.14"></rect><rect width="156" height="4" x="676" y="497" rx="2" transform="rotate(129, 754, 499)" opacity="0.41"></rect><rect width="202" height="4" x="575" y="417" rx="2" transform="rotate(129, 676, 419)" opacity="0.77"></rect><rect width="193" height="4" x="139.5" y="137" rx="2" transform="rotate(129, 236, 139)" opacity="0.62"></rect><rect width="70" height="4" x="321" y="67" rx="2" transform="rotate(129, 356, 69)" opacity="0.88"></rect><rect width="86" height="4" x="334" y="481" rx="2" transform="rotate(129, 377, 483)" opacity="0.50"></rect><rect width="53" height="4" x="431.5" y="301" rx="2" transform="rotate(129, 458, 303)" opacity="0.73"></rect><rect width="343" height="4" x="33.5" y="673" rx="2" transform="rotate(129, 205, 675)" opacity="0.30"></rect><rect width="225" height="4" x="58.5" y="307" rx="2" transform="rotate(129, 171, 309)" opacity="0.74"></rect><rect width="72" height="4" x="457" y="762" rx="2" transform="rotate(129, 493, 764)" opacity="0.64"></rect><rect width="26" height="4" x="469" y="38" rx="2" transform="rotate(129, 482, 40)" opacity="0.82"></rect><rect width="147" height="4" x="441.5" y="115" rx="2" transform="rotate(129, 515, 117)" opacity="0.56"></rect><rect width="241" height="4" x="-16.5" y="415" rx="2" transform="rotate(129, 104, 417)" opacity="0.72"></rect><rect width="104" height="4" x="256" y="715" rx="2" transform="rotate(129, 308, 717)" opacity="0.45"></rect><rect width="171" height="4" x="606.5" y="721" rx="2" transform="rotate(129, 692, 723)" opacity="0.36"></rect><rect width="296" height="4" x="362" y="178" rx="2" transform="rotate(129, 510, 180)" opacity="0.81"></rect><rect width="207" height="4" x="417.5" y="242" rx="2" transform="rotate(129, 521, 244)" opacity="0.07"></rect><rect width="43" height="4" x="593.5" y="720" rx="2" transform="rotate(129, 615, 722)" opacity="0.23"></rect><rect width="28" height="4" x="425" y="213" rx="2" transform="rotate(129, 439, 215)" opacity="0.25"></rect><rect width="46" height="4" x="33" y="432" rx="2" transform="rotate(129, 56, 434)" opacity="0.85"></rect><rect width="38" height="4" x="277" y="338" rx="2" transform="rotate(129, 296, 340)" opacity="0.60"></rect></g></svg>